<svg xmlns="http://www.w3.org/2000/svg" width="64" height="64" viewBox="100 400 1350 1350" shape-rendering="geometricPrecision">
  <path fill="#fefefe" d="M0 1200l0 1200 1200 0 1200 0 0-1200 0-1200-1200 0-1200 0 0 1200Zm1807.7-738.2c0 1.3-.5 5.2-1.1 8.4-.7 3.4-1.4 7.2-1.6 8.6-.6 3.7-1.4 7.7-2 10.2-.3 1.2-.8 3.2-1 4.5-.3 1.3-.8 3.3-1 4.5-.3 1.2-.8 3.2-1 4.2-.2 1.2-1.1 5.5-2 9.8-.8 4.2-1.8 8.8-2 10.2-.3 1.4-.8 3.6-1 4.8-.3 1.2-.8 3.2-1 4.5-.6 3.1-1.2 5.9-2.5 12-.6 2.9-1.3 6.3-1.5 7.5-.2 1.2-.7 3.4-1 4.8-.7 3-1.2 5.6-2 9.2-.6 2.8-.8 3.6-2.5 11.5-.6 2.6-1.3 5.7-1.5 6.7-.2 1.2-.9 4.3-1.5 7-.6 2.8-1.3 6-1.5 7-.8 3.8-1.6 7.6-2 9.8-.3 1.2-.8 3.3-1 4.6-.3 1.4-.7 3.5-1 4.8-.2 1.3-.6 3.4-1 4.6-.6 3.5-1.5 8-2 11-.9 5.6-1.4 8.4-3.2 17-.9 4.8-1.8 9.3-2 10 0 .7-1.4 7-2.8 14-1.4 7-2.8 13.6-3 14.8-.2 1-1.2 5.9-2.2 10.7-1 4.8-2 9.9-2.2 11.3-.4 1.3-.8 3.8-1.1 5.4-.3 1.7-.7 4-1 5-.3 1.2-.7 3.5-1 5.3-.3 1.8-.7 4.1-1 5.3-.3 1-.7 3-.9 4.4-1.6 8.6-1.8 9.1-2.8 13.2-.2.5-.6 2.2-.8 3.7-.2 1.5-1 4.8-1.6 7.4-2 9.7-2.7 12.9-4.4 22.3-1.2 7-.4 5.9-9.8 12.4-4.1 2.9-7.6 5.5-20 14.5-3.8 2.8-8.8 6.4-11 7.9-7.8 5.4-18 12.6-20 14.3l-2.2 1.7-.1 66.3-.1 66.3-3.6 2.5c-2 1.4-5.4 3.7-7.6 5-13.4 8.6-26.7 17.3-42.5 27.8-31 20.7-43 28.5-59.2 39.1-3 1.8-5.4 3.7-5.5 4 0 .4 0 18.1 0 39.6l-.1 38.9-22.5 15.2c-23.9 16.1-35.1 23.7-42.8 29-13 9-14.3 9.5-17.5 6.9-1.4-1.2-1.5-1.6-1.4-4.1l.2-2.8 3.7-2.7c2.1-1.4 9.9-6.7 17.3-11.7 7.4-5 18.2-12.3 24-16.4 5.8-4 14.3-9.9 19-12.9 4.7-3.2 9-6.2 9.6-6.8l1.1-1 0-35.9 0-35.9-24.6-16.4c-13.5-9.1-26-17.4-27.6-18.5-2.9-2.1-3-2.1-4.2-1.3-.7.5-3.6 2.3-6.3 4-5 3.1-9.1 5.7-15.1 9.4-1.7 1.1-4.7 3-6.7 4.2-1.9 1.2-3.7 2.6-4 3.1-.3.6-.5 16.6-.5 40.6 0 21.8-.2 39.9-.4 40.2-.4.5-1.5 1.3-14.3 9.9-5 3.3-10 6.6-11.2 7.3-1.2.7-4 2.4-6.2 3.8l-4.1 2.5-.2 5c-.1 4.2-.3 5.3-1.5 7.6-1.4 2.8-5.5 7.1-6.8 7.1-.4 0-1.4.6-2.2 1.3l-1.6 1.3 0 51.8c0 57.2-.2 53.6 3.1 53.6.8 0 1.8.2 2.3.4.5.3 2.2 1.1 3.8 1.9 3 1.5 7 5.3 8.3 8 .3.8.8 1.8 1.1 2.3.2.5.4 1.4.4 2.1 0 .7.3 1.4.5 1.5.3.2.5 2.4.5 5 0 2.6-.2 4.9-.5 5-.2.2-.5 1-.5 1.8 0 3.6-6.3 11.1-11.7 13.7-2.9 1.4-3 1.4-10.3 1.2l-7.4-.2-6.7 5.3c-3.6 2.9-8.8 7.1-11.6 9.5-5.6 4.7-11 9-20 15.9-9.4 7.1-13.4 10.2-23.3 18.1-5.1 4-12.4 9.7-16.3 12.6-3.8 3-9.2 7.2-12 9.4-8.2 6.6-18.3 14.2-19.9 15-1.7 1-3.6.2-12.1-4.8-4.2-2.5-5.6-3.3-12-6.7-2.2-1.2-7.6-4.4-12.2-7-8-4.7-19.4-11.3-31.8-18.3-3.2-1.9-8.6-5.1-11.8-7.1-3.2-2-6.1-3.7-6.5-3.9-.5-.2-7.5 4.2-17.3 10.6-9.1 6-18 11.8-19.7 12.9-1.7 1.1-6.7 4.2-10.9 7-4.4 2.8-9.4 6-11.3 7.2-1.9 1.2-6.3 3.9-9.7 6.1-3.6 2.3-6.8 4-7.6 4-.6 0-4.8-2.1-9.4-4.8-8.7-5.1-26.2-15.1-33.8-19.4-4.1-2.3-14.5-8.4-41.7-24.6-14.9-8.8-16.5-9.7-17.3-9.7-.4 0-3.8 2.2-7.6 4.9-3.8 2.7-16 11.1-27.1 18.7-11.1 7.5-22.1 15-24.5 16.6l-4.2 2.9 0 5.8c0 3.2-.4 6.8-.7 8-3.9 13.8-20 20-32.7 12.4-7.6-4.4-11.8-14.2-9.6-22.2.8-3.5 1.3-3-8.8-9.2-8.1-5-31.6-20.2-49-31.9-4.8-3.3-9.7-6.3-10.8-6.9-3.8-2-3.6 0-3.8-27.6-.2-13.6-.2-32.6.1-42.2.2-9.5.3-17.6.2-18-.1-.3-1.8-1.6-3.7-2.7-12.3-7.6-13-24.7-1.3-32.5 6.7-4.6 13.3-4.6 20.3 0l2.4 1.4 8.4-5.4c11.6-7.5 26.2-16.8 30.6-19.6 4.2-2.6 10-6.2 14.6-9.2 1.8-1.2 4.1-2.6 5.2-3.2l1.8-1.2 0-43.4 0-43.4 1.2-1c.6-.6 4.2-3 8-5.5 3.9-2.5 10.8-6.9 15.4-9.9 4.6-3 9.2-5.9 10-6.4 2.4-1.5 26.4-17.2 28.6-18.8 1.2-.8 3.4-2.3 5-3.3 1.7-1.1 5.8-3.7 9.3-6 3.5-2.2 8.3-5.4 10.9-6.9 2.5-1.6 4.8-3.3 5-3.7.2-.5.6-12.8.8-27.3l.4-26.4-1.4-1.2c-1.3-1.1-9.1-5.9-39.7-24.4-5.9-3.5-12.7-7.7-15.1-9.2l-4.4-2.8.1-38 .2-38.1 4.5-2.7c2.5-1.5 9.2-5.6 15-9.2 9-5.6 13.5-8.4 22.2-14.1 10.9-7 14-8.7 15.6-8.7.7 0 5.4 2.6 10.9 6 5.3 3.4 12.9 8 16.7 10.4 3.9 2.3 8 4.8 9 5.6 3.6 2.4 29 18.3 29.8 18.6.5.1.6 13.6.6 51.5l-.1 22.3-4.5 2.9c-2.4 1.6-8 5.1-12.2 7.7-4.4 2.6-11 6.7-14.8 9.2-7.8 5.1-13.1 8.5-18.2 11.7-2 1.2-3.7 2.4-3.9 2.7-.2.4-.4 13.2-.4 28.7l0 28 1.1 1c1.6 1.5 10 7 22.5 14.8 5.9 3.7 14.9 9.5 20.1 12.9 6.5 4.3 9.6 6 10 5.7 2.6-1.9 6.4-4.2 8.4-5 3.7-1.3 11.2-.9 14.8.9 3.4 1.8 4 1.7 6.9-.8 4.8-4.1 21.8-17.3 40-31 6.9-5.3 16.5-12.6 21.4-16.3 4.9-3.7 10.6-8 12.7-9.5 3.4-2.4 8.2-5.9 21.8-16.1 2.1-1.6 3.8-3.1 3.8-3.2 0-.1-1.1-1.6-2.5-3.3-2.5-3.2-3.8-5.5-4.6-8.4-.8-2.6-1-10.9-.5-12.5.4-.7.7-2.1.8-3.1l.4-1.7-9-5.2c-12.5-7.2-46.5-27.7-70.1-42-5.1-3.1-12.3-7.5-16-9.7-4.4-2.6-6.9-4.5-7.6-5.5-.9-1.5-.9-3.2-.8-50.1l.1-48.4 2-1.4c1.1-.7 5-3.1 8.5-5.3 11.7-7.1 33.9-21 38.1-23.7 5.2-3.4 21.7-13.8 29.8-18.8 4.3-2.7 4.5-2.9 3.8-5.2-2.4-8.7 4.8-20.9 14.4-23.9 1-.4 2.4-.8 3.1-1.1 2-.8 5.7-.5 9.1.8 10.5 3.8 15.2 11.2 14.9 23.4l-.2 6 10.8 6.4c5.9 3.6 12.6 7.7 14.9 9.2 4.8 2.9 4.4 2.7 15.8 9.4 4.7 2.8 9.3 5.6 10.3 6.2.9.6 3 1.8 4.5 2.6 1.5.8 5.9 3.2 9.9 5.6 4 2.2 7.4 4 7.8 3.8.7-.2.8-6.8.8-50.4l0-50.2 1.4-1c.8-.6 2.7-1.8 4.4-2.6 1.6-.8 4.2-2.3 5.7-3.2 1.5-1 3.6-2.3 4.7-3 1.1-.7 4.4-2.7 7.3-4.5 26.8-16.6 45.5-27.8 52.9-31.6 1.8-1 4.3-2.3 5.5-3 2.7-1.6 7-1.8 9-.3.7.5 7.1 4.1 14.1 8.1 13.1 7.5 23.1 13.4 28 16.5 4.5 2.9 24.5 14.4 25 14.4 1 0 1.3-11.4 1.1-46.7 0-14.6 0-29.2 0-32.5.1-4.8 0-6-.6-6.3-.4-.2-2-.9-3.5-1.5-10.7-4.7-14.9-19.1-8.7-30.2 2.9-5.2 10.6-9.8 16.4-9.8 4.7 0 9.1 1.5 13.4 4.4 2.3 1.6 2.3 1.6 4.5.8 3-1.1 13.4-4.2 17.4-5.2 1.6-.4 2.6-.6 7.2-2 1-.3 2.5-.7 3.4-.9.9-.3 3.2-1 5.1-1.6 2-.6 5.1-1.5 7-2 2-.5 5.1-1.4 7-2 2-.6 4.3-1.3 5.2-1.5.8-.3 2.3-.7 3.2-.9.9-.3 2.4-.7 3.4-1 .9-.3 6-1.7 11.2-3.2 9.4-2.8 12.9-3.7 22.3-6.2 2.6-.7 5.4-1.4 6.2-1.7.9-.2 3.3-.9 5.5-1.5 5.3-1.4 6.4-1.7 10.4-2.9 1.9-.6 4.9-1.5 6.8-2.2 1.8-.5 5.9-1.6 9.1-2.4 3.1-.9 6.4-1.7 7.2-2 2.7-.8 5-1.4 10-2.7 2.8-.7 6.5-1.7 8.3-2.3 1.8-.5 5.5-1.6 8.2-2.2 2.8-.8 5.7-1.6 6.5-1.8.9-.2 3.2-.9 5.3-1.4 2-.5 5.1-1.4 6.7-1.8 1.7-.5 3.9-1.1 5-1.4 1.1-.2 2.5-.7 3-.9.9-.4 4.7-1.4 9.3-2.5.9-.2 2.5-.6 3.5-.9 3.3-1 5.2-1.5 9.2-2.6 4.1-1.1 6.3-1.7 9-2.5.9-.2 3.2-.9 5.3-1.4 2-.5 5-1.3 6.5-1.7 1.5-.5 4.5-1.3 6.7-1.9 2.2-.6 5.2-1.4 6.5-1.8 3.6-1.1 14.1-3.9 19.3-5.2.9-.2 2.5-.6 3.5-.9.9-.3 3.4-.9 5.5-1.5 2-.5 4.7-1.3 6-1.7 1.2-.4 3.1-1 4.2-1.3 1.1-.3 3.3-.9 4.8-1.4 1.5-.4 4.4-1.2 6.5-1.8 3.6-.9 4.6-1.2 8.9-2.4 1-.3 2.5-.7 3.3-.8.9-.2 1.8-.5 2-.7.3-.1 1.9-.6 3.5-.9 1.7-.4 3.5-.9 4-1.1 2.5-1.1 3.5-.4 3.5 2.3Zm-975.2 447.8c10.3 6.2 10.1 5.8 9.9 14.7l-.2 6.4-6 3.7c-3.2 2-6.4 3.6-7 3.6-.5 0-3.6-1.5-6.7-3.4l-5.7-3.4-.2-7.7c-.2-9.1-.8-7.8 6.8-12.3 6.2-3.7 5.6-3.6 9.1-1.5Zm87.7 64.4c5.6 3.3 10.4 6.5 11 7.1.8 1 .8 2.2.7 13.4l-.1 12.3-2.8 1.8c-4.6 3-18.5 11.4-19 11.4-.2 0-2.1-1-4.1-2.2-2-1.2-6.8-4.1-10.7-6.4l-7-4.1-.1-12c-.1-6.7 0-12.5.1-13 .2-1 2.8-2.9 9.6-7 1.6-1 4.8-3.1 7.2-4.6 2.4-1.5 4.5-2.7 4.8-2.7.2 0 5 2.7 10.4 6Zm-105.8 40.6c2.7 1.8 5.4 3.5 5.8 3.8.7.6.8 1.9.7 9l-.1 8.3-5.7 3.7c-7.1 4.5-7 4.5-14.6 0-7-4.1-6.6-3.3-6.4-12.6l.2-7 4-2.7c4.6-3.1 9.1-5.5 10.2-5.6.5 0 3.1 1.4 5.9 3.1Zm65.2 100.5l6.4 4.1 0 8.1c0 6.5-.2 8.2-.8 8.7-2.4 2-12.6 8-13.6 8-1.3 0-12.3-6.5-13.7-8.1-1.1-1.3-1.3-15.1-.3-16.5 1.6-1.9 12.7-8.4 14.4-8.4.8 0 3.8 1.6 7.6 4.1Zm-81.3 11c2.5 1.8 5.4 3.8 6.6 4.6l2.1 1.5-.1 8.5-.1 8.5-6.6 4.4c-3.6 2.4-7 4.3-7.7 4.3-1.1.1-9.2-4.7-13.9-8.2-1.1-.8-1.1-1-1-9.1l.2-8.4 3.4-2.4c5-3.4 10.9-6.8 11.8-6.8.5 0 2.8 1.4 5.3 3.1Zm-43.5 104.2l6.4 4.1.2 8.1.1 8-3.6 2.3c-2 1.3-5 3.2-6.6 4.3-1.7 1.1-3.4 1.9-3.9 1.9-1.4 0-12.8-7.1-13.4-8.4-.7-1.4-.7-13.5-.1-15.3.7-1.6 12.2-9.3 13.8-9.3.3.1 3.5 2 7 4.3Zm47 131.3c3.8 2.5 7.2 4.9 7.6 5.3.4.5.6 3.2.6 9 0 8 0 8.2-1.2 9.3-1.8 1.7-14 8.8-15 8.8-1.4 0-15.1-8-15.9-9.2-.9-1.2-.5-17.7.4-18.6.7-.7 7.7-5.4 12.2-8 2.9-1.8 3.8-1.6 11.3 3.4Z"/>
  <path fill="#18ac2e" d="M1804.8 459.3c-.2.2-1.2.5-2.4.7-1.2.2-3 .6-3.9.9-3.8 1.1-5.8 1.7-7 1.9-.7.1-1.7.4-2.3.7-.5.2-2.4.8-4.2 1.2-1.8.5-3.9 1-4.8 1.3-1.8.5-4 1.1-8.8 2.4-2.2.6-4.9 1.4-6 1.8-2.1.7-4.2 1.3-11.9 3.4-3.7 1-5.5 1.4-9.3 2.3-1.8.5-2.8.7-7.2 2-2.3.7-11.8 3.3-18.8 5.2-3 .8-6.2 1.7-7 1.9-1 .3-2.4.7-3.3.9-1.9.5-5.7 1.6-10.1 2.8-1.7.5-3.7 1.1-4.6 1.3-.8.2-3.2.9-5.3 1.4-2.1.6-5.7 1.5-7.7 2.1-2.2.6-4.6 1.2-5.4 1.5-4.5 1.3-9.4 2.7-12.6 3.5-14.2 3.7-16.2 4.3-20.2 5.5-1.8.5-5.5 1.5-8.2 2.3-5.2 1.3-7.2 1.8-10.3 2.7-.9.3-2.5.7-3.5 1-3.4.8-9.3 2.4-16 4.5-3.7 1.1-8.4 2.5-10.5 3-2.1.6-4.4 1.2-5.3 1.5-6.2 1.7-9.7 2.7-11.2 3-1 .2-3.1.8-4.8 1.2-1.6.5-3.8 1.1-4.7 1.3-.9.3-3.3.9-5.3 1.5-1.8.6-4.4 1.3-5.4 1.6-1.2.3-2.6.7-3.3.9-1.5.5-12.5 3.7-18.7 5.5-.8.2-3.2.9-5.3 1.5-2.1.6-4.5 1.3-5.3 1.5-4 1.1-5.2 1.5-10.2 3-4.8 1.4-8 2.3-12.5 3.5-3.1.8-8.7 2.5-13.2 3.9l-4.5 1.5-2.5-1.8c-6.7-4.6-13.7-5.5-19.9-2.5-8.9 4.3-12.7 10.5-12.3 20.3.3 9.5 5.7 16.6 14.4 19.2.8.3 1.1 83.1.3 84.3-.6.8-2.1.7-3.9-.4-9.3-5.3-19.5-11.2-23.1-13.5-5.4-3.4-33.1-19.5-42-24.4-2.1-1.2-4.2-.7-9.1 2-2.6 1.5-6.5 3.6-8.8 4.9-5 2.7-17 9.9-28.9 17.2-4.8 3-10.6 6.5-12.8 7.9-2.2 1.3-7 4.3-10.7 6.6-3.7 2.3-9.2 5.6-12.3 7.3-3 1.7-5.9 3.5-6.3 4.1-.9.9-.9 4.1-.9 50.7 0 33.3-.2 49.8-.5 50-.3.2-1.6-.4-2.9-1.1-1.3-.7-3.9-2.3-5.9-3.3-1.9-1.1-4.5-2.5-5.7-3.3-5.9-3.4-9.1-5.2-10.5-5.6l-1.6-.4.3 2.2c.2 1.3.2 2.3-.2 2.5-1.6.9 1.1 5.7 3.2 5.7.2 0 1.8.9 3.6 2 1.8 1.1 3.4 2 3.5 2 .1 0 1.4.8 2.8 1.7 3.6 2.2 5 3.1 7.2 4.4 5.9 3.2 30.9 17.9 34.9 20.4 4.2 2.7 15.5 9.3 21.8 12.8 10.2 5.7 12.1 7.2 11.7 8.7-1.4 5.8-.4 15.8 2.1 19.2 1.2 1.9.8 2.7-3.4 5.7-2.2 1.6-6.3 4.6-9.1 6.6-2.9 2-7.2 5.2-9.6 7-2.5 1.8-6.3 4.6-8.7 6.2-2.4 1.6-4.8 3.4-5.4 4-1.2 1.1-1.5 2.1-.4 1.7.7-.3 4.9 3.8 5.5 5.3.4 1.2 2.9.7 5.3-1.1.9-.8 2.2-1.7 2.8-2.1 1.3-.9 9-6.8 14.7-11.2 2.3-1.8 5.5-4.2 7.1-5.3 1.5-1.1 4.4-3.2 6.4-4.7 4.2-3.2 4-3.2 8.1-1.3 1.7.8 3.5 1.5 3.9 1.5 2 0 2-1.1 2 63.6 0 71.3-.6 63 4.8 65.9 1.6.9 3.9 2.2 5.2 3 1.2.8 7.3 4.4 13.5 8 6.2 3.7 13.3 8 15.7 9.5 2.5 1.6 8.4 5.2 13.1 8 4.8 2.8 9.6 5.8 10.7 6.6l2 1.4 0 37.2c0 20.4-.2 37.3-.4 37.6-.2.2-4 2.9-8.4 5.9-8.2 5.5-10 6.7-17 11.8-5.2 3.8-6 4-9.3 2.2-3.8-2-9-2-12.8 0-3.5 1.7-4.3 1.7-7.3-.4-1.4-.9-4.2-2.8-6.3-4.1-2.1-1.4-6-4-8.7-5.9-2.8-1.9-5.6-3.8-6.2-4.3-18.2-12.3-22.6-14.6-22.6-11.7 0 .6-.2 1.3-.6 1.5-.2.2-.4.6-.2 1 .2.4-.2 1.6-.8 2.5-1.7 3.2-1.2 3.7 9.2 10.5.4.2 3.7 2.4 7.2 4.8 9.8 6.4 15.5 10 20.6 12.9 5.7 3.3 6 3.6 5.2 5.7-2 5.6 2.6 14.5 9 17.6l1.9.8 0 6.5c0 9 1.2 10.7 5.3 7.4.8-.6 1.8-.9 2.4-.7 1.4.3 1.5-.3 2.1-8.6l.3-4.5 1.6-.6c5.4-1.9 9.8-9 9.8-15.6 0-5.2-.4-4.6 6-8.5 5.4-3.2 19.2-12.3 26-17 2-1.4 3.9-2.9 4-3.3.2-.5.4-18.8.4-40.6.1-21.9.4-40 .6-40.2.3-.4 10.6-6.9 20.2-12.9 2.8-1.7 6.7-4.2 8.8-5.5 4.2-2.8 3.4-3 10.6 2.2 2.8 2 14.8 10.1 26.8 17.9l21.6 14.3-.1 36.1c-.1 35.6-.1 36.1-1.1 37-.6.5-4.8 3.4-9.5 6.6-4.7 3.1-12.3 8.3-17 11.6-4.7 3.2-13.1 9-18.7 12.7-13.7 9.2-27.1 18.5-28.2 19.5-2.3 2.1.2 7.5 3.8 8.4 1.2.3 7.8-3.6 15.6-9 6.1-4.4 20.2-13.9 43.4-29.5 11-7.4 20.4-13.8 21-14.4.8-1 .9-3.1.7-40l-.2-39 5.2-3.3c9-5.8 32.1-21 38.4-25.2 18.4-12.4 43.8-29.2 55.6-36.7 7.3-4.6 17.3-11.2 18.3-12.1.8-.7.8-4.5.8-66.9 0-52.3.2-66.2.7-66.6 2.2-1.9 5.4-4.2 17.3-12.6 10.2-7.1 13.8-9.7 21.3-15.2 4.1-3.1 9.5-7 12-8.7 11.5-8 10.6-7 11.7-13.3.6-3.1 1.1-6 2-10.8.3-1.5.7-3.6 1-4.7 1.1-4.7 1.6-6.7 2-9 .3-1.4.7-3.7 1-5 .3-1.4.8-3.7 1-5 .3-1.4.8-3.5 1-4.8.3-1.2.8-3.4 1-4.7.3-1.4.8-3.7 1-5 .7-3.1 1.3-6.1 2-10 .3-1.7.7-4 1-5.3.9-4.8 1.6-8.3 2-10.5.3-1.2.7-3.4 1-4.7.3-1.4.7-3.8 1-5.3.3-1.5.7-3.7 1-5 .3-1.2.8-3.4 1-4.7.3-1.4.8-3.5 1-4.8.3-1.2.8-3.4 1-4.7.3-1.4.8-3.7 1-5 .3-1.4.8-3.6 1-4.9.3-1.3.7-3.4 1-4.8.3-1.3.7-3.6 1-5.1.3-1.5.7-3.7 1-5 .8-4.3 1.6-8.2 2-10.6.3-1.3.7-3.6 1-5 .3-1.4.7-3.9 1-5.4.8-5 1.8-9.5 3-15.7.2-1.1.7-3.4 1-5 .8-3.9 1.3-6.5 2-9.3.3-1.2.8-3.4 1-4.7.3-1.4.8-3.5 1-4.8.3-1.2.8-3.2 1-4.5 1-5 2.3-10.7 3.1-14.2.3-1.1.7-3 .9-4.3.3-1.2.7-3.3 1-4.6.3-1.3.7-3.3 1-4.5.2-1.2.7-3.4 1-4.9.4-1.5.8-3.7 1-5 .5-2.2 1.2-5.9 2-9.9 1.2-5.2 1.5-6.5 2-9.1.3-1.5.8-3.7 1-5 .3-1.2.8-3.4 1-4.7.3-1.4.8-3.7 1-5 .3-1.4.8-3.7 1-5 .3-1.4.7-3.5 1-4.8.3-1.2.8-3.4 1-4.7.3-1.4.7-3.4 1-4.5.2-1.1.7-3.3 1-4.8.4-1.5.8-3.6 1.1-4.7.5-2.1.9-4.3 1.9-9.8.3-1.8.8-4.2 1-5.5 1.7-8.3 2.5-13.6 2.2-14.1-.3-.5-2.9-.5-3.3 0Zm-66 63.4c.4.9-6 7.8-21.3 23.5-5.7 5.8-20.5 21.1-32.9 34-23.6 24.5-36 36.8-36.8 36.8-.3 0-2.3-.8-4.6-1.8-10.4-4.5-18.5-3.9-27.2 1.8-5.2 3.5-11.3 10.9-12.4 15.2-.3 1.1-.7 3-1 4.1-.7 2.6-.7 9.8 0 12.1.3 1 .9 2.8 1.3 4.1.4 1.2.8 2.6 1 3 .1.6-1.5 2-5.3 4.9-13.2 10-25.3 19.1-29.8 22.8-2.8 2.1-7.2 5.6-10 7.7-2.8 2-7.1 5.4-9.6 7.4-5.2 4.2-4.8 4.1-9 2.2-5.9-2.8-14.1-2-19.7 2-2.1 1.5-2.1 1.5-12.6-5.1-11.9-7.5-18.6-11.6-27.7-16.9-4-2.3-7.3-4.3-7.4-4.5-.4-.6-.5-24-.4-58.6l.1-32.8 4.3-2c4.9-2.4 9.2-6.3 10.8-9.9 1-2.5 2-3.1 5.3-3.7 1.3-.2 4.1-.8 6.3-1.2 2.2-.5 5.4-1.1 7-1.4 1.7-.3 3.9-.7 5-.9 1.1-.3 2.7-.6 3.5-.8 1.7-.4 5.5-1 10-1.7 1.7-.3 4.3-.7 5.8-1 1.5-.3 4.1-.7 5.7-1 3.5-.6 6.5-1.2 10.3-2 1.5-.4 3.6-.8 4.7-1 1.1-.2 4.5-.9 7.5-1.5 3.1-.6 6.7-1.3 8-1.6 2.8-.5 5.7-1.1 9.8-1.9 1.5-.3 4.1-.8 5.7-1.1 2.8-.5 4.3-.8 10.2-1.9 3.2-.6 7.8-1.5 10.8-2 1.4-.3 3.7-.7 5-1 1.4-.3 3.8-.7 5.3-1 1.5-.3 3.7-.7 5-1 1.2-.2 3.5-.7 5-1 1.5-.3 3.7-.8 5-1 1.2-.3 3.5-.8 5-1 1.5-.3 3.7-.7 5-1 1.2-.2 3.6-.7 5.2-1 1.7-.4 3.9-.8 5-1 1.1-.2 3.4-.7 5-1 1.7-.4 3.9-.8 5-1 5.8-1.2 10.3-2.1 15.5-3 1.4-.3 3.5-.7 4.8-1 1.2-.2 3.6-.7 5.2-1 1.7-.4 4-.8 5-1 1.1-.2 3.3-.7 4.8-1 1.5-.3 3.7-.7 5-1 1.2-.3 3.5-.8 5-1.1 1.5-.3 3.7-.7 5-1 2.2-.4 4-.8 9.7-1.9 1.5-.3 4.3-.8 6.3-1 7.9-1.1 9.5-1.3 9.8-1.7.6-.6 2.7-.3 3 .4Zm9.1 21.1c.1 4-.2 8.9-.7 12.8-.4 3.3-1 8.3-1.2 10.9-.2 2.6-.6 7.2-1 10.3-.2 3-.8 9.2-1 14-.4 4.6-.8 10.9-1 14-.7 7.9-1.4 18.8-2 28-.3 4.4-.8 10.8-1 14.2-.3 3.4-.7 9-1 12.5-1.2 18.2-1.6 21.7-2 26.3-1.2 10.1-1.8 19.6-3 40-.2 4.6-.7 10.9-1 14-.3 3-.8 9.4-1 14.2-.2 4.8-.7 10.9-1 13.5-.2 2.6-.6 6.5-.8 8.6l-.3 3.9-4.6 3.3c-9.3 7-11.7 8.7-18.5 13.5-3.9 2.7-8.4 5.9-10 7.1-1.7 1.2-7.8 5.4-13.8 9.5-5.8 4-11.7 8.2-13 9.2l-2.5 1.9-.1 27.9c0 15.3-.1 45-.1 66.1l0 38.3-8.1 5.5c-4.5 3-11.9 8-16.4 11.1-4.5 3.1-8.4 5.6-8.7 5.6-.6 0-1-25-.6-47.5l.3-19.2 1.5-.8c3.2-1.6 7.2-4.6 8.4-6.1 15.8-20.9-5.6-47-27.7-33.8-3 1.8-3.1 1.8-6.2-.5-2.3-1.7-13.4-9.5-26.7-18.7-5.7-3.9-23.9-16.1-26.9-18l-2.2-1.4 0-5.7 0-5.8 2.6-2c1.5-1.1 7-5.2 12.4-9.1 5.3-4 12.2-9 15.2-11.3 3-2.2 10.3-7.5 16-11.7 5.8-4.2 13.6-9.8 17.4-12.6 3.7-2.8 9.4-6.9 12.5-9.2l5.9-4.1 0-44.5c0-48.2-.1-46 2.6-46 .5 0 2.8-.9 5-2.1 7.1-3.7 12.6-10.4 15.7-19.1 1-2.9 1.2-15.5.2-16.4-.3-.3-.5-1-.5-1.6 0-.6-.2-1.3-.4-1.6-.3-.2-.7-1.1-1.1-1.9l-.6-1.5 19.4-19.3c10.8-10.6 26.7-26.8 35.5-36 20.3-21.3 34.6-35.6 35.3-35.3.4.1.7 2.2.8 6.7Zm-351.1 101.7c6.8 4.3 11.4 7 14.4 8.8 9.4 5.4 19.2 11.3 24.3 14.1 8.2 4.7 13.3 7.7 23.3 13.7 2.4 1.5 6.7 4 9.4 5.6 2.8 1.6 8.6 5.1 13 7.7 7.8 4.6 11.6 6.8 20.8 12.2 8.4 5 11.1 6.9 10.7 7.8-1.5 3.6 0 12.6 2.8 16.1 2.8 3.5 2.7 3.6-3.3 7.7-1.3 1-5.4 3.9-9 6.5-3.5 2.6-8 5.9-10 7.3-1.8 1.3-6.4 4.6-10 7.3-3.5 2.6-8.2 6-10.4 7.6-6.6 4.7-16.3 11.8-20.6 15-2.2 1.7-7.6 5.6-12 8.8-4.4 3.2-9.8 7.2-12.2 9-2.4 1.8-6.4 4.8-8.8 6.6-2.6 1.9-6.1 4.5-8 5.8-4.2 3.2-4.3 3.2-6.6 1.5-8.8-6.4-18.7-6.1-27.9.9-1.4 1.1-3 2-3.5 2-1.3 0-11.4-5.7-27-15.1-6.6-4-13-7.8-14.2-8.4-3-1.5-13-7.5-14.1-8.4-.8-.7-.9-3.7-.9-49.6 0-45.9 0-48.9.9-49.6.5-.4 3.1-2.1 5.9-3.7 2.7-1.6 6.8-4 9.2-5.4 2.4-1.3 5.8-3.3 7.8-4.5 5.6-3.3 10.8-6.5 12.4-7.6 2.4-1.7 10.6-6.6 20.8-12.3 5.1-2.9 11-6.3 13-7.6 4.7-2.9 4.9-2.9 9.8.2Zm217.6 22.4c1.9 1.3 7.1 3.9 8.8 4.3l1.3.3 0 41.9 0 41.9-7.1 5.5c-4 3-8.2 6.2-9.6 7.2-1.4 1-7.4 5.3-13.4 9.7-6 4.5-13.2 9.7-16 11.9-6.8 4.9-17.8 13.1-24.8 18.2-6.3 4.8-6 4.6-9.6 2.8l-2.8-1.4-.1-35.3-.1-35.3 2.7-2c8.1-6 11-13.9 9-23.9-.3-1.5 0-1.7 5.4-5.6 16-11.5 22.5-16.4 31.3-23.5 24.4-19.6 22.6-18.4 25-16.7Zm-83.5 107.9l.1 35.1-2.8 1.6c-10 5.7-12.3 20.2-4.4 28.9 1.6 1.8 4.2 3.4 8.4 5 1.7.8 7.2.8 7.6.1.1-.3.7-.5 1.2-.5.6 0 2.1-.7 3.4-1.5 1.4-.9 2.8-1.5 3.1-1.5.9 0 53.1 35 57.7 38.8l2 1.5-.6 3.3c-2.1 11.5 1 18.9 10.2 24l3 1.7.1 38.3.1 38.4-5.1 3.4c-6.4 4.1-10.9 7.1-14.4 9.6-1.5 1.2-6.2 4.4-10.5 7.2-4.2 2.8-9.7 6.4-12.2 8.2-14 9.6-20.4 13.6-21.1 13.4-.4-.2-3-1.8-5.8-3.7-5.8-3.9-10.3-6.7-14.9-9.6-1.8-1.1-6.8-4.3-11.2-7.1-4.4-2.9-10.6-6.8-13.8-8.8-3.1-1.9-7.6-4.6-9.9-6.1-2.3-1.4-4.4-2.5-4.7-2.5-1.1 0-8.8 4.9-28.8 18.4-4.6 3.1-8.7 5.6-9.2 5.6-.9 0-2-.6-12.3-7.3-3-1.9-7.4-4.6-9.7-6.1-5.2-3.2-15.8-10-19.2-12.1-1.3-.9-5.7-3.6-9.7-6.1-4-2.5-7.5-4.7-7.7-5-.6-.5-1-116.5-.4-118.8.1-.7 1-1.5 2.5-2.2 1.3-.6 4.1-2.8 6.2-4.9 7.4-7.3 9.5-16.1 6.6-26.6l-.9-3.1 1.8-1.6c1-.8 4-3.1 6.7-4.9 6.6-4.5 10.8-7.6 19-13.8 3.8-2.9 8.1-6 9.4-7 2.3-1.5 17.3-12.4 31.7-23 2.9-2.1 10.5-7.7 17-12.5 6.5-4.9 13.4-9.9 15.2-11.3 2-1.4 5.8-4.2 8.5-6.3 3.6-2.7 5.5-3.8 6.4-3.8l1.2.1.2 35.1Zm-273.1-18.2c-1.8 3.9-1.8 4.4-.5 5.6 2.7 2.6 5.7 2.9 5.7.6 0-.7.6-1.9 1.3-2.8 1.5-1.8 1.3-2.1-1.7-4.1-3-1.9-3.7-1.8-4.8.7Zm148.3 499c-.3.8-.6 2-.6 2.7 0 .7-.6 1.5-1.5 2.2-.8.6-1.5 1.4-1.5 1.8 0 1.1 3.2 4.3 4.4 4.5.5 0 1.7.5 2.8 1.1 2 1.2 4.1 1.5 4.5.5.4-.5 2.6-1.5 3.9-1.6.5-.1 1.3-.6 1.9-1 .6-.6 1.5-1.2 2.1-1.5 3.1-1.6 1.7-4.2-3.1-5.7-1.5-.4-3.3-1.4-4-2-1-1.2-1.5-1.4-3.5-1.2-1.7.2-2.5 0-2.9-.6-1.1-1.2-2-1-2.6.8Z"/>
  <path fill="#0358ab" d="M1017 819.4c-3 1.7-7.2 4.4-26.2 16.6-3.6 2.3-11.2 7-16.8 10.4-5.6 3.4-10.4 6.4-10.6 6.7-.2.4-.4 17.5-.4 38.2l0 37.6 6.5 3.9c7.1 4.3 12.3 7.5 17.9 10.8 9.2 5.5 30.6 18.5 32.8 20l2.6 1.6 0 27.3c0 15 0 27.6-.2 27.9-.2.3-2.5 1.8-5.1 3.4-5.3 3.3-11.5 7.3-28.6 18.6-6.4 4.2-16.3 10.7-22.1 14.4-5.8 3.8-13.4 8.8-17 11-3.5 2.3-9.2 6-12.5 8-3.3 2.1-6.5 4.3-7.1 4.8l-1.2 1 0 43.5 0 43.4-1.1.7c-.6.4-3.4 2.1-6.1 3.9-2.8 1.8-9.8 6.2-15.5 9.8-5.8 3.7-12.3 7.8-14.5 9.2-2.2 1.5-7.2 4.6-11 7.1-3.9 2.4-8.2 5.2-9.5 6.1l-2.6 1.7-4.9-2.5c-6.8-3.3-9.8-3.3-16.4.1-5.8 3-10.4 10.7-10.4 17.6 0 5.4 5 13 10.7 16.3l2.5 1.5-.1 41.6c-.1 22.9.1 42.3.3 43.2.2 1 1.2 2 2.8 3 2.5 1.6 8.6 5.5 34 22.3 16.8 11 18.2 11.9 25.3 16.2 2.6 1.6 6.1 3.8 7.7 4.9l2.9 1.9-.3 2.3c-1.4 8.6.7 15.8 6.1 20.6 11.5 10.4 27.9 7.3 34.7-6.4l2.2-4.3 0-6.5 0-6.4 7.2-4.9c4-2.7 10.8-7.3 15-10.2 20.4-13.8 30.7-20.9 35.3-24.2 2.8-2 5.5-3.6 6-3.6.8 0 10.7 5.5 17.9 10 7 4.3 40.2 23.8 45.6 26.7 4 2.2 21.8 12.4 27 15.5 1.9 1.2 5.3 3.2 7.6 4.4l4 2.4 2-1.1c1-.6 2.8-1.8 4.1-2.7 1.3-.8 4.1-2.7 6.5-4.1 8.6-5.3 9.8-6.5 8-8-.6-.4-1-1.3-1-1.8 0-.5-.5-1.6-1-2.4-1.8-2.4-2.7-2-15.7 6.7l-4.5 3-1.8-.9c-1-.4-3.4-1.8-5.5-2.9-2.1-1.2-6.7-3.8-10.3-5.8-3.5-2.1-12.4-7.3-19.7-11.7-7.3-4.4-16.6-9.9-20.7-12.2-4.2-2.4-9.7-5.6-12.3-7.1-2.6-1.6-7.7-4.6-11.3-6.6-3.5-2.1-8.1-4.7-10-5.9l-3.7-2.2 0-38.6 0-38.5 1.7-.8c7.2-3.5 11.2-12.4 9.2-20.2-.6-2.3-.6-2.4.6-3.3.7-.5 4.6-3.3 8.8-6.2 8-5.6 9-6.3 14.6-10.5 2-1.5 6.4-4.6 9.8-6.9 3.3-2.4 8.7-6.2 11.8-8.6 3.2-2.3 7.8-5.7 10.4-7.5l4.6-3.3.1-41.3.1-41.3 3.8-1.8c11.2-5.5 16.2-18.8 10.8-29-.6-1-1.2-3-1.4-4.4-.4-3.5-2-5.5-4.5-5.5-1-.1-3.3-.8-5.3-1.7-6.4-3-13.4-2-20.1 2.8-1.3 1-2.6 1.8-2.9 1.8-.2 0-5.3-3.2-11.2-7-5.8-3.8-12.4-8-14.6-9.4-6.6-4-21.7-13.7-24.2-15.6l-2.4-1.8-.1-29-.1-29 1.8-1.3c1.1-.7 4.8-3 8.2-5.1 3.4-2.2 7.6-4.8 9.2-5.9 8.5-5.7 9.3-6.5 8.2-7.8-1.2-1.5-1.9-3.1-1.9-4.3 0-2.8-2.5-2.5-8.3 1.3-6.6 4.2-9.3 5.8-15.3 9.3-3.5 2-6.8 3.6-7.3 3.6-1.2 0-9.4-4.8-20.8-12.2-6.8-4.4-19.8-12.3-27.3-16.6l-6.2-3.6-.1-31.7c-.2-17.4 0-31.9.2-32.1.5-.7 3.9-2.8 16.9-10.8 5.5-3.4 11.4-7 13.2-8.2 7.6-5.1 15.6-9.8 16.5-9.8 1 0 5.2 2.5 15.5 9 9.2 5.9 15.5 9.8 19.7 12.3 2.2 1.3 4.6 2.8 5.2 3.3.7.5 1.8.9 2.4.9.6 0 1.2.2 1.2.5 0 .2.4.5.8.5.4 0 .7-.3.7-.5 0-.3.4-.5.9-.5 1.5 0 6-4.9 5.3-5.9-.5-.7-10-7.2-11.7-8-.4-.1-3.2-1.9-6.2-3.8-3-2-7-4.5-8.8-5.6-1.8-1-5.2-3.2-7.6-4.6-2.4-1.6-5.8-3.8-7.5-4.8-1.7-1.1-4.7-3-6.5-4.2-4-2.6-3.4-2.5-7.4-.2Zm15.8 216.8c2.7 1.8 6 3.8 7.2 4.6 1.2.8 4.5 2.8 7.2 4.7 2.8 1.8 7.8 5.1 11.3 7.2 3.5 2.1 8.3 5.2 10.7 6.9 2.6 1.5 5.7 3.5 7 4.4 5.1 3 5.1 3 4.4 6.4-2.1 10.2 2.3 18.4 13 23.7l3.2 1.6.1 38.7c.1 30.3 0 38.9-.5 39.5-.7.8-7.6 6-12.8 9.7-4.5 3.1-5 3.4-14.6 10.7-4.8 3.6-10.2 7.5-11.9 8.7-1.7 1.2-3.8 2.7-4.6 3.2-.7.6-3.8 2.8-6.8 4.9-6.1 4.4-6.3 4.5-10.8 2.4-5.5-2.5-11.5-1.7-16.2 2.1-2.5 2-1.8 2.3-20.9-9.6-4.1-2.6-8.9-5.4-10.5-6.5-2.9-1.7-5.1-3.1-18.8-11.8-3.1-2-10.8-6.5-17-10.1l-11.2-6.4-.1-41.2c-.1-22.7 0-41.5.2-41.8.3-.5 12.4-8.2 28.3-18.1 4.1-2.6 12.8-8.3 30.3-19.8 25.3-16.7 26.2-17.3 27.5-17.3.7 0 3.5 1.5 6.3 3.3Zm-95.8 141.8c3.2 1.6 36.4 21.8 45 27.4 7.4 4.8 15.7 9.7 22.5 13.4 7.7 4 7.8 4.2 7.1 6.2-2.7 7.6 1.5 16.3 9.6 20.2l2.8 1.3 0 36.7 0 36.7-5.6 3.7c-5.7 3.8-6.8 4.6-21.2 14.6-20.3 14.3-36.2 24.8-37.2 24.8-.6 0-2.2-.8-3.6-1.8-8.8-5.8-16.3-5.4-24.6 1.2-3.4 2.8-1 4.2-36.3-19-20.9-13.7-24.2-15.9-31.6-20.5l-2.9-1.9.1-40.3.2-40.4 2.2-1.1c7.9-3.7 12.2-12.1 10.8-21l-.4-2.6 1.9-1.3c1.1-.7 5.8-3.7 10.5-6.6 9.2-5.6 25.6-16.1 39.3-25 9.8-6.4 8.8-6 11.4-4.7Zm-113.1-267.1c-2.6 1.5-5.5 3.3-6.2 3.9l-1.4 1-.2 7c-.1 5.1 0 7.1.5 7.8.7.9 11.7 7.4 12.6 7.4.8 0 12.5-7 13.2-7.9.7-.9.8-9.5.2-12.4-.4-1.6-3.2-4-8.8-7.1-4.9-2.9-4.5-2.9-9.9.3Zm83.3 58.5c-1 .8-3.6 2.3-5.4 3.5-15.4 9.4-13.8 6.8-13.7 21.8l.1 12.4 6.3 3.8c3.5 2 8.3 4.9 10.9 6.5l4.6 2.7 6.9-4.1c3.7-2.3 8.7-5.4 11-6.8l4.1-2.7 0-12.2 0-12.3-1.2-1.1c-1.4-1.3-20.4-12.9-21.1-12.9-.3 0-1.3.6-2.5 1.4Zm-103.2 44.3c-4.8 2.7-8.6 5.2-9.3 6.2-.7.8-1 14.4-.3 15.4.5.7 12.9 8.2 13.6 8.2.2 0 3.4-1.9 7-4.3l6.5-4.2 0-7.6c0-9 .7-7.7-7.1-12.6-6.4-3.9-5.7-3.8-10.5-1.1Zm63.2 99.4c-5.3 3.2-9.3 5.8-9.8 6.6-.7 1-.4 15 .2 15.9.4.4 3.7 2.6 7.3 4.9l6.7 4.1 3-1.9c7.3-4.3 11.3-7.3 11.5-8.1.2-.5.2-4.2 0-8.2l-.2-7.4-2.3-1.4c-1.3-.7-4.3-2.6-6.8-4.2-2.4-1.6-4.5-2.9-4.7-2.9-.2 0-2.4 1.2-4.9 2.7Zm-77.8 11.6c-5.6 3.4-11.8 7.7-12.1 8.5-.6 1.7-.3 13.3.4 14.9.5 1.3 2.2 2.6 7.7 6l7.1 4.5 7.3-5 7.4-4.9.2-8.1.1-8-3.3-2.3c-2-1.3-5-3.4-7-4.8-4.4-2.9-4.2-2.9-7.8-.8Zm-46.9 104.3c-10 6.1-9.1 4.9-9.3 12.2-.4 9.4-.4 9.4 6.2 13.3 3.1 1.9 5.9 3.6 6.2 3.9.4.4 1 .6 1.6.6 1.1 0 13.6-8 14.4-9.1.6-.9.5-13.1-.2-14.5-.2-.6-1.1-1.5-1.8-2-.8-.4-3.7-2.2-6.5-4.1-2.9-1.8-5.4-3.3-5.5-3.3-.3 0-2.5 1.3-5.1 3Zm44 131.8c-3.1 2-6.6 4.4-7.7 5.4l-1.8 1.7.1 8.1c.2 9.6-.7 8.3 9.7 14.4l7.1 4.2 4.1-2.6c2.3-1.5 6-3.8 8.2-5.1l3.8-2.5 0-8.3c0-4.6-.2-8.6-.4-8.9-.8-1.2-15-10.2-16.2-10.1-.6 0-3.7 1.6-6.9 3.7Z"/>
  <path fill="#07868f" d="M1205.4 707.8c-5.1 1.4-12 7-14.1 11.4-2 4.3-2.9 11.1-1.8 14 .6 1.7.8 1.5-10.2 8.4-12.8 8-20.3 12.8-26.3 16.7-4.5 2.9-23.4 14.6-36.9 22.8-3.5 2.2-6.9 4.4-7.7 4.9l-1.4 1.1 0 48.5 0 48.7 1.4 1.6c.8.9 7.7 5.4 15.4 10 7.6 4.6 18.7 11.3 24.4 14.9 5.8 3.5 13.2 7.8 16.3 9.7 3.1 1.9 9.6 5.7 14.3 8.5 4.6 2.9 11.8 7.2 16 9.5 4.1 2.4 9.3 5.5 11.6 6.8l4.2 2.5-.4 2c-.1 1.1-.5 2.2-.7 2.5-.9.9-.5 9.9.6 13.2 1 3.1 4 8.1 5.6 9.5 1.5 1.2.9 2.4-3.1 5.3-7.9 6-18.4 13.8-22.7 16.8-2.3 1.8-8.2 6.1-13 9.8-4.7 3.6-13.8 10.5-20.1 15.2-6.3 4.8-13.9 10.5-16.8 12.9-2.9 2.2-7.3 5.7-9.9 7.6-5 3.8-6.5 5.1-11.8 9.3-3.8 3.2-3.7 2.7-1.6 5.2 1 1.2 1.8 2.7 1.9 3.5.2 1.7 1.4 2.6 1.4 1 0-.8 1.3-2 9.4-7.8 1.2-.8 4.9-3.7 8.4-6.3 3.4-2.6 7.9-6 10-7.5 2.1-1.5 5.2-3.8 6.9-5.1 1.7-1.3 7.8-6 13.6-10.4 5.8-4.4 15.2-11.6 21-16 5.8-4.4 13.1-9.9 16.2-12.2 3.2-2.4 8.8-6.6 12.5-9.5 6.9-5.3 7.8-5.8 10-4.6l1.3.6 0 49.8c0 46.7 0 49.8.8 50.8.5.5 3.1 2.2 5.8 3.9 2.6 1.6 8.1 5.1 12.1 7.8 8.9 5.8 17.6 11.2 29 18.1l8.8 5.2.1 46.8.1 46.8-3.7 2.4c-7.8 4.8-25.4 16.7-34.5 23.2-2.1 1.4-10.6 7.3-20.8 14.2-6.9 4.8-6.2 4.6-8.8 2.7-2.8-2.1-8.9-4.5-11.1-4.5-4.3 0-9.7 2.6-13.9 6.6-11.2 10.8-6.8 30.1 8 34.6.8.2.8 1.6.8 19.2l0 19-1.6.9c-1.9 1-27.1 17.9-34.9 23.4-2.9 2.1-8.5 6-12.6 8.6-7.4 5-8.6 6.2-5.9 6.2 1.8 0 2.2.6 2.1 3.4-.1 1.4.1 2 .4 1.9.3-.2 1 .2 1.6.8 1.3 1.3.9 1.4 12.5-6.1 4.9-3.1 10.5-6.7 12.5-8 2-1.3 6-3.9 8.8-5.7 2.9-2 5.6-3.8 6.1-4 .4-.4 3.1-2.2 6-4.1 2.9-1.9 6.4-4.3 7.9-5.1l2.5-1.6 6 3.6c5.7 3.4 8.4 5 27.6 16 4.8 2.8 12.5 7.2 17 9.9 4.6 2.7 10.1 5.8 12.3 7 2.2 1.2 6.8 3.7 10.2 5.7 3.5 2 7.7 4.3 9.4 5.2l3.1 1.6 1.9-1.2c2.2-1.4 15.2-11.4 21.9-16.8 1.4-1.1 5.1-3.9 8.2-6.3 3.2-2.4 10.5-8.2 16.3-12.7 11-8.8 13.9-11 26.7-20.8 4.3-3.3 8.6-6.6 9.6-7.4 5.8-4.7 8.4-6.8 10.7-8.8 1.4-1.3 3.8-3.2 5.3-4.4 1.5-1.2 4.5-3.6 6.8-5.4l4.2-3.3 3.3.8c6.2 1.6 12.6.4 17-3.2.8-.7 2.1-1.7 2.8-2.2 1.2-.8 2.7-2.7 4.9-6.4 3.2-5.1 2.9-17.1-.4-21-.4-.4-.7-1-.7-1.2 0-.9-5.7-6.1-7.1-6.7-1.9-.7-2.4-.7-2.4.1 0 1.1-3.4 4-4.2 3.7-.5-.2-1 0-1.1.4-.2.4-.7.8-1.3.8-.4 0-.9.2-.9.5 0 1.2-3.5.5-4.9-1-.6-.9-1.6-1.5-2.4-1.5-.6 0-1.2-.2-1.4-.5-2.1-3.4-7.1-1-10.8 5-2.6 4.6-4 13-2.6 16.6.3.6.8 2.1 1.2 3.4.4 1.2 1.4 3.3 2.4 4.7l1.6 2.5-2.2 1.9c-1.2 1.1-3 2.5-3.9 3.3-.9.7-3.5 2.7-5.7 4.5-8.4 6.5-11.6 9.1-16.4 13-3.7 2.9-16.4 13-19.2 15.1-1.2.9-3.2 2.4-4.4 3.3-1.1.9-3 2.3-4 3.2-5 3.8-6.6 5-11.6 9.1-14.7 11.7-21.8 17.3-24.5 19.1-1.6 1.1-5.3 3.8-8.1 5.9-2.7 2.1-5.3 3.9-5.6 3.9-1 0-13.5-7.1-38.5-22-8.7-5.2-21.3-12.7-28.1-16.8l-12.4-7.3 0-21 0-20.9 2.1-1.1c6.9-3.5 12.5-12.4 11.7-18.7-.2-1.4-.4-3-.4-3.7-.2-1.1 1.6-2.4 16.2-12.3 8.9-6 17.9-12.1 20-13.6 2-1.4 6.6-4.6 10.2-7 10-6.7 24.4-16.8 24.8-17.4.2-.2.4-22.2.4-48.8l0-48.4 5.4-3.6c8.7-5.8 33-20.4 33.9-20.4.5 0 2.3.9 4.2 2.1 5.1 3.4 6.6 4.3 9.3 5.6l2.5 1.2.3-2.3c.2-1.2.6-2.5.8-2.8.4-.3.6-1.3.6-2.2 0-.9.2-2.1.6-2.7.5-1-1-3.4-2.2-3.4-.4 0-1-.4-1.5-.9-.5-.4-1.3-1-1.9-1.3-.4-.3-1.9-1.2-3-2-1.2-.8-3.6-2.4-5.1-3.4-3.2-2.1-6.7-2.6-7.9-1.2-.3.4-.8.8-1 .8-.3 0-3.5 2-7.1 4.4-3.6 2.4-8.4 5.5-10.5 6.9-2.2 1.3-6.9 4.3-10.5 6.7-11 7.1-11.8 7.5-13.6 6.6-1.7-.8-12.4-7.6-21.5-13.6-9.1-6-15.3-9.8-17.8-10.9-1.2-.6-4.1-2.3-6.5-3.7l-4.2-2.7-.2-46.9c-.1-37.2 0-46.9.5-47 4.8-1.3 11.7-5.5 14.7-9 6.1-7 8.6-17.3 6.3-26.3-1-3.9-1-4.3-.2-5.1.8-.9 9.9-7.6 14.8-10.9 1.4-1 5.3-3.7 8.5-6 3.3-2.4 6.4-4.6 7-5 .6-.4 2.3-1.7 3.8-2.8 1.4-1.1 3.3-2.4 4-3 .8-.5 2.7-2 4.4-3.2 1.5-1.3 4.1-3.1 5.6-4.2 1.5-1 3.8-2.6 5-3.5 1.3-1 4.5-3.3 7.2-5.2 5.3-3.6 6.7-4.6 13.3-9.4 3.5-2.6 5.1-4.7 3.5-4.7-.3 0-.4-.2-.3-.4.3-.5-4.8-5.7-5.5-5.6-.2.1-.8 0-1.3-.3-.6-.2-1.2 0-1.9.5-.5.5-1.4 1.2-1.9 1.5-1.5.8-7.6 5.1-10.1 7-1.2 1-3 2.3-4 3-.9.7-2.5 1.8-3.5 2.5-.9.7-2.5 1.8-3.5 2.5-.9.7-2.7 2.1-4 3-1.2 1-2.8 2.2-3.5 2.7-.7.4-2.1 1.5-3 2.2-2.3 1.9-5.5 4.3-7.6 5.8-2 1.4-6.3 4.6-12.3 9.2-2.6 2-5.4 4.1-6.3 4.7-.8.6-2.4 1.8-3.4 2.5-1 .8-3.4 2.5-5.2 3.9-1.9 1.3-4.1 3-4.8 3.6-1.9 1.6-2.3 1.5-5.7-.8-10.2-7-23.1-5.9-31.9 2.6-3.2 3.2-3.7 3.3-6.8 1.3-1-.7-3.2-2.1-5-3.1-3.3-2.1-12.5-7.7-24.7-15.3-9.4-5.8-22.6-13.9-24.7-15.1-.9-.5-8.6-5.1-17-10.1-8.4-5.1-17-10.1-18.9-11.3l-3.7-2.1 0-42.9c0-40.2.1-42.9.9-43.6 1-.9 6.7-4.3 19.9-12.1 5.2-3.1 11.4-6.9 13.7-8.4 2.4-1.5 8.7-5.5 14.2-9 5.5-3.4 11.4-7.1 13.1-8.2 16.9-10.7 14.8-9.8 19.2-7.5 8.5 4.5 16.1 4.1 22.9-1.1 1.2-.9 2.3-1.6 2.5-1.6.2 0 3.9 2.1 8.1 4.7 4.3 2.6 8.8 5.3 10 6 1.3.7 3.5 2.1 5 3 1.5 1 4.3 2.5 6.2 3.5l3.3 1.7 0-2.7c0-1.5.3-2.7.5-2.7.3 0 .5-.4.5-.8 0-.4.3-.7.5-.7.9 0 .6-1.3-.6-2.4-1.1-1-4.1-3-8.6-5.5-1.3-.7-2.8-1.6-3.2-1.9-.5-.3-4.4-2.6-8.8-5.2-7.4-4.4-7.8-4.8-7.6-6 3.8-17-10.1-32.5-25.3-28.3Zm58 52.3c-.3 1.2-1 2.5-1.4 2.9-2.4 2-1.6 2.8 6.5 7.5 2.3 1.3 5.1 2.9 6.3 3.6 3.2 2.1 4.7 2.3 4.7.7 0-.7.3-1.8.5-2.3.3-.6.8-1.5 1-2.1.8-1.5.2-2.8-2-3.9-1-.6-2.9-1.6-4.1-2.4-3.7-2.3-4-2.6-7.5-4.3l-3.4-1.8-.6 2.1Zm-193.2 92.4c-1.3 1.3-2.4 2-3.2 2-.8 0-1.6.3-1.8.5-.2.3-.4.4-.7.2-.7-.4-.9 1.2-.3 2 .3.4 1 1.1 1.7 1.4 2 1.2 5.9 3.6 8.5 5.3l2.6 1.7 0 30.1 0 30.2-2.6 1.7c-1.4 1-6 4-10.2 6.7-4 2.7-7.6 5-7.7 5.1-.1.1.1.6.4 1.1.3.5.6 1.4.7 1.9 0 .5.4 1.5 1 2.4.5.8 1.1 2 1.4 2.6.3.6.9 1.1 1.3 1.1.8 0 1.4-.3 9.2-5.2 2.2-1.4 5.1-3.3 6.5-4 1.4-.9 4.5-2.7 6.8-4.3l4.2-2.7 0-36.3c0-31-.1-36.6-.7-37.1-.4-.3-2.5-1.8-4.8-3.1-2.2-1.4-5-3.2-6.2-3.9-2.7-1.9-3.7-1.7-6 .6Zm339.5 312.3c-.7.6-1.5 1.2-1.8 1.2-.3 0-.3.2-.1.4.1.3-.3.6-.9.7l-1.1.2-.2 43.2c-.2 44.9-.1 46.5 1.2 46.5.5 0 1.2.3 1.6.7 1.1.9 6.2.4 6.6-.7.6-1.8.5-91.3-.1-92.1-1.2-1.4-3.7-1.5-5.2-.1Z"/>
</svg>
